<svg xmlns="http://www.w3.org/2000/svg" width="15" height="11" viewBox="0 0 15 11"><g><g><path fill="#555" d="M13.928 9.75c0 .133-.125.25-.267.25H1.339c-.142 0-.268-.117-.268-.25v-6c.176.187.369.359.578.515a113.03 113.03 0 0 1 3.566 2.641c.628.492 1.406 1.093 2.277 1.093h.016c.87 0 1.65-.601 2.277-1.093a113.177 113.177 0 0 1 3.566-2.64c.21-.157.402-.329.578-.516zm0-8.212c0 .665-.686 1.532-1.23 1.93-1.122.82-2.243 1.649-3.357 2.477C8.898 6.28 8.094 7 7.508 7h-.016c-.586 0-1.39-.719-1.834-1.055a520.925 520.925 0 0 0-3.356-2.477c-.754-.554-1.23-1.328-1.23-2.218 0-.133.125-.25.267-.25h12.322c.318 0 .268.343.268.538zM15 1.25C15 .562 14.397 0 13.66 0H1.34C.602 0 0 .561 0 1.25v8.5C0 10.437.603 11 1.34 11h12.32c.737 0 1.34-.563 1.34-1.25z"/></g></g></svg>