<svg xmlns="http://www.w3.org/2000/svg" width="90" height="90" viewBox="0 0 90 90"><defs><clipPath id="5h54a"><path fill="#fff" d="M45 0c24.853 0 45 20.147 45 45S69.853 90 45 90 0 69.853 0 45 20.147 0 45 0z"/></clipPath></defs><g><g><g><path fill="#c0301c" d="M45 0c24.853 0 45 20.147 45 45S69.853 90 45 90 0 69.853 0 45 20.147 0 45 0z"/><path fill="none" stroke="#ddd" stroke-miterlimit="50" stroke-width="4" d="M45 0c24.853 0 45 20.147 45 45S69.853 90 45 90 0 69.853 0 45 20.147 0 45 0z" clip-path="url(&quot;#5h54a&quot;)"/></g><g><path fill="#fff" d="M42.735 36.223C44.57 40 46.146 44.036 47.49 47.994c-.491.026-.982.052-1.473.052-2.559 0-5.117-.078-7.675-.104zM24 65c1.628 0 3.23-.079 4.858-.365.362-.052.879-.208 1.24-.208 2.998 0 6.022.52 9.02.52.025-.234.05-.468.05-.703 0-.52 0-1.015-.025-1.51-1.473-.208-5.272-.287-5.272-2.292 0-.99 2.61-7.812 3.282-9.323l11.629.053c.413 1.067 3.747 8.802 3.747 9.739 0 .964-1.37 1.146-2.067 1.302l-3.386.73a17.824 17.824 0 0 0-.103 2.03c3.385-.104 6.77-.39 10.156-.39 3.281 0 6.563.417 9.845.417 0-.235.026-.443.026-.678 0-.494-.078-.989-.155-1.484-1.215-.469-3.592-.625-4.445-1.302-.362-.286-.723-1.068-.904-1.484-1.292-2.656-2.197-5.443-3.36-8.151-1.964-4.584-3.747-9.245-5.685-13.855l-5.297-12.5c-.078-.182-.181-.364-.284-.547h-3.308l-7.236 18.855-6.124 16.041c-1.085 2.813-3.721 2.292-6.15 3.047z"/></g></g></g></svg>