<svg xmlns="http://www.w3.org/2000/svg" width="90" height="90" viewBox="0 0 90 90"><defs><clipPath id="8ew0a"><path fill="#fff" d="M45 0c24.853 0 45 20.147 45 45S69.853 90 45 90 0 69.853 0 45 20.147 0 45 0z"/></clipPath></defs><g><g><g><path fill="#fff" d="M45 0c24.853 0 45 20.147 45 45S69.853 90 45 90 0 69.853 0 45 20.147 0 45 0z"/><path fill="none" stroke="#ddd" stroke-miterlimit="50" stroke-width="4" d="M45 0c24.853 0 45 20.147 45 45S69.853 90 45 90 0 69.853 0 45 20.147 0 45 0z" clip-path="url(&quot;#8ew0a&quot;)"/></g><g><path fill="#c0301c" d="M34.155 59.174a.921.921 0 0 1-1.328 0L19.375 45.666a.93.93 0 0 1 0-1.333l13.452-13.507a.922.922 0 0 1 1.328 0l1.444 1.449a.93.93 0 0 1 0 1.333L24.254 45l11.345 11.39a.93.93 0 0 1 0 1.334zm7.737 5.043c-.145.493-.664.783-1.126.637l-1.79-.492a.94.94 0 0 1-.635-1.16l10.767-37.42c.145-.493.664-.783 1.126-.638l1.79.494a.94.94 0 0 1 .635 1.159zm16.28-5.043a.921.921 0 0 1-1.327 0l-1.444-1.45a.93.93 0 0 1 0-1.333L66.746 45 55.401 33.608a.93.93 0 0 1 0-1.333l1.444-1.45a.922.922 0 0 1 1.328 0l13.452 13.508a.93.93 0 0 1 0 1.333z"/></g></g></g></svg>